<svg xmlns="http://www.w3.org/2000/svg" viewBox="0 0 263.65 40.1"><defs><style>.cls-1{fill:#fff;}.cls-2{fill:#7f0500;}</style></defs><g id="Layer_2" data-name="Layer 2"><g id="Layer_1-2" data-name="Layer 1"><g id="METAPOL"><path class="cls-1" d="M61.5,15.68V34.12H55.64V6.78h6L72.24,19.37,82.81,6.78h6V34.12H83V15.68L72.24,28.49Z"/><path class="cls-1" d="M119.12,6.78v5.86H97.63v4.88h17.58v5.86H97.63v4.88h21.49v5.86H91.77V6.78Z"/><path class="cls-1" d="M136.7,12.64V34.12h-5.86V12.64H120.09V6.78h27.35v5.86Z"/><path class="cls-1" d="M154.33,25.33H164l-4.82-9.84Zm-2.87,5.86L150,34.12h-6.51L156.91,6.78h4.49l13.38,27.34h-6.5l-1.43-2.93Z"/><path class="cls-1" d="M181.62,12.64v4.88h13.67c1.3,0,2-.33,2-1V13.61c0-.65-.65-1-2-1Zm-5.86-5.86h19.53q7.82,0,7.81,6.83v2.93q0,6.84-7.81,6.84H181.62V34.12h-5.86Z"/><path class="cls-1" d="M225.56,12.64H213.84c-1.3,0-2,.32-2,1V27.28c0,.65.65,1,2,1h11.72c1.3,0,2-.33,2-1V13.61C227.52,13,226.86,12.64,225.56,12.64ZM213.84,6.78h11.72q7.81,0,7.81,6.83V27.28q0,6.84-7.81,6.84H213.84q-7.8,0-7.81-6.84V13.61Q206,6.77,213.84,6.78Z"/><path class="cls-1" d="M236.3,6.78h5.86V28.26h21.49v5.86H236.3Z"/></g><g id="Eagle"><path class="cls-2" d="M20.77,16.3c.44-1.56.87-3.05,1.31-4.55-.66-.33-.95-.78-.79-1.23a1.63,1.63,0,0,0,.5.27,1.39,1.39,0,0,0,.6-.09,6.61,6.61,0,0,1,.68-.29,4,4,0,0,1,3.19.54,1.06,1.06,0,0,1-.11,1.64c0-.24.13-.49-.17-.59a.73.73,0,0,0-.77.19.71.71,0,0,0-.27.77c.31,1,.64,1.95,1,2.93a2.9,2.9,0,0,1,.11.38c.07-.05.13-.07.15-.1,1.79-2.86,3.57-5.74,5.36-8.59a1,1,0,0,1,.39-.33L45.52.61,46.58.09,46.84,0c-.28.44-.5.8-.73,1.18C45,2.94,43.86,4.7,42.72,6.47a1,1,0,0,1-.29.29Q38.68,9,34.94,11.25a1.84,1.84,0,0,0-.61.63c-1.91,3.18-3.78,6.39-5.66,9.56l-5.13,8.67-.11.17a1.38,1.38,0,0,1-.16-.23c-2-3.42-4-6.83-6.05-10.24-1.61-2.71-3.19-5.43-4.81-8.14a1,1,0,0,0-.35-.34C9.53,9.8,7,8.28,4.48,6.73A1.72,1.72,0,0,1,4,6.18c-1.32-2-2.61-4-3.91-6A.93.93,0,0,1,0,0L.24.08C3.49,1.65,6.73,3.24,10,4.81Q12.43,6,14.86,7.21a1,1,0,0,1,.42.37Q18,11.81,20.58,16Zm1.06,7.14.07.06c.43-.31.87-.61,1.29-.94a.3.3,0,0,1,.44,0l1.15.85c.07.05.13.06.27.14-.19-.58-.35-1.1-.52-1.59a.32.32,0,0,1,.14-.44c.38-.25.74-.52,1.1-.78l.19-.16a10.75,10.75,0,0,0-1.59-.07.35.35,0,0,1-.41-.29c-.14-.51-.33-1-.5-1.56a.78.78,0,0,0-.12.19c-.15.45-.29.89-.43,1.35a.36.36,0,0,1-.44.31c-.42,0-.86,0-1.3,0l-.35,0c.47.34.85.64,1.26.89a.45.45,0,0,1,.2.66C22.11,22.53,22,23,21.83,23.44Z"/><path class="cls-2" d="M21.94,29.37c.48.84,1,1.64,1.47,2.49l1.45-2.44.08,0a4.23,4.23,0,0,1,0,.5c.2,2.32.41,4.63.59,6.94a.65.65,0,0,1-.11.43l-1.93,2.59a1.08,1.08,0,0,1-.13.19c-.36-.49-.69-.91-1-1.34s-.71-.91-1-1.38a1,1,0,0,1-.16-.55c.08-1.12.19-2.23.29-3.35l.33-3.95A1,1,0,0,0,21.94,29.37Z"/><path class="cls-2" d="M20.14,26.34c.38.64.74,1.22,1.09,1.82a.3.3,0,0,1,0,.21c-.33,2.39-.67,4.79-1,7.18a.78.78,0,0,1-.06.19c-.38-.5-.73-1-1.09-1.43-.49-.64-1-1.29-1.46-2a.5.5,0,0,1-.07-.41c.81-1.81,1.62-3.6,2.44-5.39C20,26.49,20.08,26.45,20.14,26.34Z"/><path class="cls-2" d="M26.62,35.71c0-.27-.09-.52-.12-.77-.3-2.15-.6-4.31-.88-6.46a.92.92,0,0,1,.11-.52c.25-.48.53-.93.81-1.39l.18-.23c.26.58.52,1.11.75,1.66.6,1.31,1.18,2.62,1.78,3.91a.39.39,0,0,1,0,.45c-.84,1.1-1.65,2.2-2.49,3.31Z"/><path class="cls-2" d="M33.78,14.79c.31-.52.64-1.06,1-1.57a.26.26,0,0,1,.11-.1L41.47,9.2h.12a1.85,1.85,0,0,1-.09.23c-.54,1-1.06,2-1.61,3a.75.75,0,0,1-.37.33l-5.37,2-.33.12A.79.79,0,0,0,33.78,14.79Z"/><path class="cls-2" d="M5.28,9.17c.49.29,1,.57,1.45.87l5.16,3.05a.9.9,0,0,1,.34.36c.29.44.54.9.84,1.37-.1,0-.14,0-.19,0-1.75-.65-3.51-1.29-5.25-1.9a1.43,1.43,0,0,1-.87-.71c-.47-1-1-1.91-1.49-2.85l0-.14S5.27,9.19,5.28,9.17Z"/><path class="cls-2" d="M15.44,18.85l-1.51-.4-3.21-.88a.9.9,0,0,1-.69-.52c-.41-.85-.86-1.68-1.33-2.56a.89.89,0,0,1,.23,0c1.87,1,3.76,2,5.63,3a.52.52,0,0,1,.21.14Z"/><path class="cls-2" d="M38.15,14.44c-.19.35-.33.65-.49,1-.33.63-.66,1.25-1,1.87a.58.58,0,0,1-.29.22l-4.5,1.24a1.68,1.68,0,0,1-.41.06c.3-.42.38-1,.9-1.25l5.56-3C38,14.49,38,14.49,38.15,14.44Z"/><path class="cls-2" d="M17.11,21.62c-.76-.21-1.43-.43-2.11-.57a1.45,1.45,0,0,1-1.22-1c-.13-.35-.34-.65-.46-1l1.51.8c.47.25.93.53,1.41.75A2,2,0,0,1,17.11,21.62Z"/><path class="cls-2" d="M33.6,19c-.33.61-.61,1.16-.91,1.7a.26.26,0,0,1-.16.13l-2.64.73s-.08,0-.15,0c.25-.36.37-.72.78-.93,1-.49,1.9-1,2.85-1.53A1.33,1.33,0,0,1,33.6,19Z"/></g></g></g></svg>